<?xml version="1.0" encoding="UTF-8"?>
<!DOCTYPE svg PUBLIC "-//W3C//DTD SVG 1.1//EN" "http://www.w3.org/Graphics/SVG/1.1/DTD/svg11.dtd">
<!-- Creator: CorelDRAW 2019 (64-Bit) -->
<svg xmlns="http://www.w3.org/2000/svg" xml:space="preserve" width="1630mm" height="330mm" version="1.1" style="shape-rendering:geometricPrecision; text-rendering:geometricPrecision; image-rendering:optimizeQuality; fill-rule:evenodd; clip-rule:evenodd"
viewBox="0 0 163000 33000"
 xmlns:xlink="http://www.w3.org/1999/xlink">
 <defs>
  <style type="text/css">
    .str0 {stroke:#131E3D;stroke-width:20;stroke-miterlimit:22.9256}
    .str1 {stroke:#131E3D;stroke-width:20;stroke-miterlimit:22.9256}
    .fil0 {fill:#131E3D}
    .fil3 {fill:#131E3D}
    .fil1 {fill:#EE4927}
    .fil2 {fill:#EE4927;fill-rule:nonzero}
    .fil4 {fill:#EE4927;fill-rule:nonzero}
  </style>
 </defs>
 <g id="Слой_x0020_1">
  <metadata id="CorelCorpID_0Corel-Layer"/>
  <path class="fil0" d="M-712631.93 -1274501.87c-198.25,0 -326.27,-40.19 -463.39,-176.1 -216.3,-214.37 -228.35,-633.63 0,-861.82 128.26,-128.16 252.32,-181.11 448.4,-181.11 171.35,0 307.18,65.23 418.42,176.11 102.27,101.95 160.11,231.55 171.25,423.51 1.74,29.89 -4.51,38.37 -5.18,64.81 -1.63,63.91 -15.31,127.29 -38.42,186.4 -23.93,61.19 -55.68,114.28 -97.54,162.25 -39.23,44.96 -43.35,52.26 -97.33,92.52 -29.59,22.07 -58.45,39.71 -93,56.88 -60.07,29.83 -155.38,56.55 -243.21,56.55zm-999.21 -634.49c0,318.51 102.16,539.44 276.04,713.18 92.31,92.25 156.61,137.09 273.5,196.11 290.22,146.54 723.24,114.31 985.7,-83.49 46.25,-34.86 86.76,-67.19 127.19,-107.63 39.52,-39.51 71.73,-79.67 105.46,-124.35 102.22,-135.39 175.57,-339.1 175.57,-528.87 0,-187.18 -14.01,-307.9 -93.26,-466.3 -75.66,-151.2 -190.72,-284.25 -329.37,-380.07 -48.98,-33.86 -97.28,-60.03 -153.55,-86.25 -91.93,-42.85 -179.45,-59.07 -280.92,-73.81 -284.86,-41.38 -592.2,64.97 -795.34,268.26 -177.75,177.88 -291.02,402.84 -291.02,673.22z"/>
  <path class="fil0" d="M-711432.89 -1274172.13l374.7 0 0 -1134.1c11.65,8.53 17.09,20.9 25.93,34.03l197.85 281.76c9.38,14.08 15.76,21.1 25.09,34.87l495.56 708.48c10.38,14.62 46.3,61.31 49.95,74.96l284.77 0 0 -1873.51 -369.71 0 0 1134.1c-12.32,-9.02 -109.29,-152.83 -124.91,-174.84l-550.49 -783.46c-17.93,-26.47 -118.18,-175.8 -133.95,-175.8l-274.79 0 0 1873.51z"/>
  <path class="fil0" d="M-719646.35 -1275146.35l-369.71 0 0 -549.57 369.71 0c108.89,0 199.18,68.42 237.03,162.66 7.95,19.8 10.87,25.59 15.05,49.89 15.57,90.64 -0.99,186.55 -65.87,253.44 -45.16,46.57 -96.49,83.58 -186.21,83.58zm-744.41 -884.3l0 1858.52 374.7 0 0 -649.48 264.79 0c18.23,0 33.99,42.07 52.07,72.83 16.86,28.68 32.67,53.97 47.85,82.04l284.77 494.61 404.68 0 -103.2 -176.58c-33.45,-61.45 -69.89,-114.97 -103.35,-176.42 -9.01,-16.57 -16.58,-27.52 -26.15,-43.79 -9.99,-17 -15.56,-27.81 -25.51,-44.44l-103.68 -176.09c-12.31,-20.33 -46.1,-71.86 -47.78,-92.12 77.32,-18.01 190.2,-128.85 239.81,-194.83 132.81,-176.66 152.56,-424.76 53.41,-622.97 -38.33,-76.63 -76.78,-117.15 -134.6,-175.16 -99.38,-99.71 -245.64,-171.11 -443.4,-171.11l-719.42 0c-11.51,0 -14.99,3.48 -14.99,14.99z"/>
  <path class="fil0" d="M-721904.55 -1274466.9l-514.59 0 0 -514.58 509.59 0c124.84,0 234.81,119.36 234.81,244.8l0 24.98c0,124.7 -106.52,244.8 -229.81,244.8zm-64.95 -799.36l-449.64 0 0 -484.61 454.63 0c34.29,0 67.47,13.04 90.04,24.87 223.18,117.05 132.87,459.74 -95.03,459.74zm-759.4 1094.13l824.35 0c76.51,0 155.84,-20.16 211.3,-43.49 49.13,-20.66 83.22,-40.6 123.53,-71.32 113.98,-86.86 204.74,-231.15 204.74,-379.8 0,-166.11 -14.11,-242.88 -118.42,-366.21 -37.74,-44.62 -83.56,-80.46 -136.38,-108.41l68.76 -66.13c132.88,-143.44 149.78,-370.3 62.82,-545.07 -30.66,-61.64 -68.42,-104.44 -115.24,-149.54 -99.85,-96.18 -246.65,-143.54 -391.04,-143.54l-734.42 0 0 1873.51z"/>
  <path class="fil0" d="M-716094.18 -1275605.99l9.99 0c1.92,22.99 22.08,73.75 29.34,95.56l220.47 653.84 -509.6 0 219.19 -655.11c10.1,-30.32 23.55,-63.98 30.61,-94.29zm-879.3 1433.86l399.69 0 112.06 -339.01 742.25 -0.72 112.07 339.01 402.53 0.72c-14.14,-60.68 -200.83,-569.5 -244.17,-700.08l-41.33 -118.55c-13.98,-37.31 -26.74,-78 -42.13,-117.73l-244.99 -699.27c-13.63,-38.99 -27.28,-81.34 -41.89,-117.98l-39.98 -119.9 -464.63 0c-2.13,25.64 -66.55,197.06 -79.3,235.45l-122 347.62c-44.06,111.32 -124.64,351.68 -162.73,466.76 -7.31,22.09 -14.02,36.54 -21.33,58.62 -6.24,18.86 -12.5,39.81 -20.03,59.9l-61.11 173.7c-20.37,61.63 -180.38,500.29 -182.98,531.46z"/>
  <path class="fil0 str0" d="M-718702.1 -1275765.86l0 1568.75 334.73 0 0 -819.35 78.69 86.18c418.68,418.67 727.33,-64.09 750.65,-81.18l0 814.35 334.73 0 0 -1548.77c0,-168.26 -193.19,-225.39 -288.7,-123.83 -33.55,35.66 -39.02,70.82 -55.35,119.5 -46.89,139.83 -220.28,659.44 -399.86,652.13 -149.87,-6.12 -352.92,-475.35 -409.6,-643.36 -18.54,-54.93 -17.38,-79.26 -53.27,-121.6 -105.89,-124.94 -292.02,-26.7 -292.02,97.18z"/>
  <path class="fil0" d="M-715025.03 -1274172.13l369.71 0 0 -869.31c18.02,12.06 472.12,614.38 498.87,650.21 45.05,60.3 128.25,163.33 165.6,219.1l424.66 0c-4.73,-20.32 -28.35,-46.15 -41.39,-63.53l-673.04 -900.7c41.46,-61.92 204.78,-267.78 259.07,-340.46l172.7 -226.98c32.6,-41.73 252.63,-322.94 257.68,-341.84l-429.66 0c-4.56,17.08 -6.45,12.94 -17.81,27.15 -7.86,9.85 -11.51,15.77 -19.27,25.7l-574.52 739.43c-8.43,10.86 -14.98,17.96 -22.89,27.07l0 -819.35 -369.71 0 0 1873.51z"/>
  <path class="fil0" d="M-726216.13 -1275875.77c0,76.71 3.6,107.84 63.56,166.26 65.68,63.99 195.43,48.57 296.16,48.57l124.71 -5.21c128.88,-1.89 102.65,43.81 181.72,208.37 28.88,60.1 49.88,123.04 78.27,181.53l274.11 635.15c15.59,38.12 19.49,54.42 49.26,80.64 49.21,43.36 143.99,23.62 226.19,23.62l1353.92 0c99.92,0 143.4,16.71 221.61,-23.2 54.63,-27.88 98.66,-78.28 107.15,-148.04 3.47,-28.56 -11.16,-84.54 -18.27,-104.28 -13.01,-36.07 -27.96,-52.16 -54.36,-75.54 -42.78,-37.89 -135.94,-43.63 -216.16,-43.63l-874.31 0c-36.87,-0.02 -60.64,3.44 -89.9,5.02 -59.48,3.21 -129.25,-0.02 -189.88,-0.02 -224.32,0 -169.75,16.81 -296.46,-268.08 -39.99,-89.9 -74.97,-174.91 -114.92,-264.79 -57.38,-129.1 -172.02,-413.13 -228.04,-526.35 -47.85,-96.72 -122.64,-65.76 -209.7,-64.69 -156.6,1.94 -309.52,-5.19 -469.82,-5.19 -117.95,0 -214.84,74.41 -214.84,179.86z"/>
  <path class="fil0" d="M-721105.19 -1275965.7l0 1793.57 374.7 0 0 -1873.51 -269.78 0c-30.69,0 -50.11,8.23 -69.24,20.69 -16.33,10.62 -35.68,34.77 -35.68,59.25z"/>
  <path class="fil1" d="M-724437.54 -1275775.86l0 59.96c0,137.45 106.2,269.44 229.82,324.74 260.18,116.38 549.56,-82.75 549.56,-354.72 0,-196.91 -167.75,-399.68 -379.7,-399.68 -210.8,0 -399.68,176.74 -399.68,369.7z"/>
  <path class="fil0" d="M-724992.1 -1274287.04c0,94.86 87.01,204.84 179.86,204.84 77.09,0 104.01,-11.84 156.21,-63.61 19.69,-19.52 26.47,-34.32 40.15,-59.78 11.64,-21.65 32.19,-36.49 63.43,-36.49l424.66 0c33.35,0 51.2,13.85 64.02,35.91 16.09,27.7 14.03,31.99 37.83,62.09 58.69,74.23 191.68,87.77 276.75,0.82 60.15,-61.49 77.55,-139.19 42.68,-220.33 -17.24,-40.12 -62.49,-80.97 -101.49,-98.35 -85.54,-38.1 -184.12,-13.82 -229,55.85 -19.42,30.14 -29.03,65.62 -71.88,78 -37.7,10.89 -155.08,1.08 -213.75,1.08l-115.11 -0.2c-64.03,0.79 -141.94,26.71 -179.55,-34.88 -23.96,-39.24 -19.8,-42.3 -63.72,-81.16 -60.76,-53.76 -173.56,-54.24 -247.42,20.04 -35.33,35.54 -63.67,80.53 -63.67,136.17z"/>
  <path class="fil1" d="M-725032.07 -1275900.75c0,131.52 109.08,239.81 219.83,239.81 72.84,0 136.49,-15.39 188.77,-71.03 91.16,-97.05 83.22,-246.21 -2.55,-335.02 -38.15,-39.49 -88.72,-77.4 -163.29,-80.09 -122.12,-4.39 -242.76,120.17 -242.76,246.33z"/>
  <path class="fil1" d="M-717587.99 -1276275.45l0 39.96c0,97.41 102.44,199.84 199.84,199.84l39.97 0c97.17,0 199.84,-102.88 199.84,-199.84 0,-72.84 -7.18,-119.88 -63.55,-176.26 -40.2,-40.19 -88.52,-59.89 -136.93,-63.55l-33.89 0c-107.11,8.08 -205.28,90.98 -205.28,199.85z"/>
  <path class="fil1" d="M-718762.06 -1276255.47c0,111.66 101.88,219.82 204.84,219.82 72.02,0 120.58,-7.87 176.26,-63.55 102.41,-102.41 80.89,-279.82 -54.63,-352.84 -40.56,-21.85 -68.82,-23.2 -108.81,-23.26l-8.45 0 -4.37 0c-80.17,0 -161.84,73.21 -184.29,130.46 -8.19,20.88 -20.55,62.36 -20.55,89.37z"/>
  <path class="fil1" d="M-724902.17 -1275296.23c0,104.63 90.09,194.84 174.86,194.84 67.36,0 103.59,-0.76 161.22,-58.61 142.96,-143.5 -12.49,-403.09 -222.78,-312.71 -63.23,27.18 -113.3,105.58 -113.3,176.48z"/>
  <path class="fil1" d="M-723693.13 -1274951.51c104.7,0 194.85,-77.18 194.85,-174.86l0 -29.98c0,-98.52 -95.02,-184.85 -194.85,-184.85 -110.08,0 -190.45,90.56 -192.8,195.46 -2.47,110.19 80.42,194.23 192.8,194.23z"/>
  <path class="fil2" d="M-720201.69 -1273327.18c-36.71,0 -72.21,-4.97 -106.48,-14.93 -34.28,-9.95 -61.82,-22.89 -82.6,-38.81l36.49 -80.94c19.9,14.6 43.56,26.32 70.99,35.16 27.42,8.85 54.84,13.27 82.26,13.27 30.52,0 53.08,-4.53 67.68,-13.6 14.59,-9.06 21.89,-21.12 21.89,-36.16 0,-11.05 -4.31,-20.23 -12.94,-27.53 -8.62,-7.3 -19.68,-13.16 -33.17,-17.58 -13.49,-4.42 -31.74,-9.29 -54.74,-14.6 -35.38,-8.4 -64.35,-16.8 -86.91,-25.21 -22.55,-8.4 -41.91,-21.89 -58.05,-40.47 -16.14,-18.57 -24.22,-43.34 -24.22,-74.3 0,-26.98 7.3,-51.42 21.9,-73.32 14.59,-21.89 36.6,-39.25 66.01,-52.08 29.41,-12.82 65.35,-19.24 107.81,-19.24 29.64,0 58.61,3.54 86.91,10.62 28.31,7.08 53.08,17.25 74.31,30.52l-33.17 81.6c-42.9,-24.32 -85.81,-36.49 -128.71,-36.49 -30.08,0 -52.3,4.87 -66.68,14.6 -14.37,9.73 -21.56,22.56 -21.56,38.48 0,15.92 8.29,27.75 24.88,35.49 16.59,7.74 41.91,15.37 75.96,22.89 35.39,8.41 64.36,16.81 86.92,25.21 22.55,8.41 41.9,21.68 58.05,39.81 16.14,18.13 24.21,42.68 24.21,73.64 0,26.54 -7.4,50.76 -22.22,72.65 -14.82,21.89 -37.04,39.25 -66.68,52.08 -29.63,12.83 -65.68,19.24 -108.14,19.24zm576.54 -107.48l-215.62 0 -41.14 99.52 -110.13 0 207 -464.42 106.15 0 207.66 464.42 -112.79 0 -41.13 -99.52zm-33.84 -81.6l-73.64 -177.81 -73.65 177.81 147.29 0zm657.48 -283.3l-201.03 464.42 -106.15 0 -200.36 -464.42 116.1 0 141.32 331.73 143.3 -331.73 106.82 0zm38.48 0l210.97 0c50.43,0 94.99,9.63 133.69,28.87 38.7,19.24 68.78,46.33 90.23,81.27 21.45,34.94 32.18,75.63 32.18,122.07 0,46.44 -10.73,87.14 -32.18,122.08 -21.45,34.94 -51.53,62.03 -90.23,81.27 -38.7,19.24 -83.26,28.86 -133.69,28.86l-210.97 0 0 -464.42zm205.67 376.18c46.44,0 83.48,-12.94 111.12,-38.81 27.65,-25.88 41.47,-60.93 41.47,-105.16 0,-44.23 -13.82,-79.28 -41.47,-105.15 -27.64,-25.88 -64.68,-38.82 -111.12,-38.82l-98.19 0 0 287.94 98.19 0zm567.25 96.2c-48.21,0 -91.67,-10.39 -130.37,-31.18 -38.7,-20.79 -69,-49.43 -90.89,-85.92 -21.9,-36.49 -32.85,-77.51 -32.85,-123.07 0,-45.55 10.95,-86.58 32.85,-123.07 21.89,-36.49 52.19,-65.13 90.89,-85.91 38.7,-20.79 82.16,-31.19 130.37,-31.19 48.21,0 91.55,10.4 130.03,31.19 38.48,20.78 68.78,49.42 90.89,85.91 22.12,36.49 33.18,77.52 33.18,123.07 0,45.56 -11.06,86.58 -33.18,123.07 -22.11,36.49 -52.41,65.13 -90.89,85.92 -38.48,20.79 -81.82,31.18 -130.03,31.18zm0 -91.55c27.42,0 52.19,-6.31 74.3,-18.91 22.12,-12.61 39.48,-30.19 52.08,-52.75 12.61,-22.55 18.91,-48.21 18.91,-76.96 0,-28.75 -6.3,-54.4 -18.91,-76.96 -12.6,-22.56 -29.96,-40.14 -52.08,-52.74 -22.11,-12.61 -46.88,-18.91 -74.3,-18.91 -27.43,0 -52.2,6.3 -74.31,18.91 -22.12,12.6 -39.48,30.18 -52.08,52.74 -12.61,22.56 -18.91,48.21 -18.91,76.96 0,28.75 6.3,54.41 18.91,76.96 12.6,22.56 29.96,40.14 52.08,52.75 22.11,12.6 46.88,18.91 74.31,18.91zm335.04 -380.83l107.48 0 0 376.84 232.87 0 0 87.58 -340.35 0 0 -464.42zm710.55 364.9l-215.62 0 -41.14 99.52 -110.13 0 207 -464.42 106.15 0 207.66 464.42 -112.79 0 -41.13 -99.52zm-33.84 -81.6l-73.64 -177.81 -73.65 177.81 147.29 0zm532.09 181.12l-89.57 -129.37 -5.31 0 -93.54 0 0 129.37 -107.48 0 0 -464.42 201.02 0c41.14,0 76.85,6.86 107.15,20.57 30.3,13.71 53.63,33.17 69.99,58.39 16.37,25.21 24.55,55.06 24.55,89.56 0,34.5 -8.29,64.25 -24.88,89.24 -16.59,24.99 -40.14,44.11 -70.66,57.38l104.17 149.28 -115.44 0zm-2 -295.9c0,-26.09 -8.4,-46.11 -25.21,-60.04 -16.8,-13.93 -41.35,-20.9 -73.64,-20.9l-87.57 0 0 161.88 87.57 0c32.29,0 56.84,-7.07 73.64,-21.23 16.81,-14.15 25.21,-34.06 25.21,-59.71zm619.67 -168.52l0 464.42 -88.24 0 -231.54 -281.97 0 281.97 -106.15 0 0 -464.42 88.9 0 230.88 281.97 0 -281.97 106.15 0zm110.14 0l107.48 0 0 464.42 -107.48 0 0 -464.42zm643.54 0l0 464.42 -88.24 0 -231.54 -281.97 0 281.97 -106.15 0 0 -464.42 88.9 0 230.88 281.97 0 -281.97 106.15 0zm423.95 224.91l98.19 0 0 188.42c-25.21,19.02 -54.4,33.62 -87.58,43.79 -33.17,10.17 -66.56,15.26 -100.18,15.26 -48.21,0 -91.55,-10.28 -130.03,-30.85 -38.48,-20.57 -68.67,-49.09 -90.56,-85.58 -21.9,-36.49 -32.85,-77.74 -32.85,-123.74 0,-46 10.95,-87.24 32.85,-123.73 21.89,-36.49 52.3,-65.02 91.22,-85.59 38.92,-20.56 82.71,-30.85 131.36,-30.85 40.69,0 77.63,6.86 110.8,20.57 33.17,13.71 61.04,33.62 83.59,59.71l-69 63.69c-33.17,-34.94 -73.2,-52.41 -120.08,-52.41 -29.63,0 -55.95,6.19 -78.95,18.58 -23,12.38 -40.91,29.85 -53.74,52.41 -12.83,22.56 -19.24,48.43 -19.24,77.62 0,28.75 6.41,54.41 19.24,76.96 12.83,22.56 30.63,40.14 53.41,52.75 22.78,12.6 48.76,18.91 77.95,18.91 30.96,0 58.83,-6.64 83.6,-19.91l0 -136.01zm608.39 74.97l0 164.54 -107.48 0 0 -165.86 -179.8 -298.56 114.12 0 124.06 206.34 124.07 -206.34 105.48 0 -180.45 299.88zm502.89 65.02l-215.62 0 -41.14 99.52 -110.13 0 207 -464.42 106.15 0 207.66 464.42 -112.79 0 -41.13 -99.52zm-33.84 -81.6l-73.64 -177.81 -73.65 177.81 147.29 0zm662.12 -283.3l0 464.42 -88.24 0 -231.54 -281.97 0 281.97 -106.15 0 0 -464.42 88.9 0 230.88 281.97 0 -281.97 106.15 0zm423.95 224.91l98.19 0 0 188.42c-25.21,19.02 -54.4,33.62 -87.58,43.79 -33.17,10.17 -66.56,15.26 -100.18,15.26 -48.21,0 -91.55,-10.28 -130.03,-30.85 -38.48,-20.57 -68.67,-49.09 -90.56,-85.58 -21.9,-36.49 -32.85,-77.74 -32.85,-123.74 0,-46 10.95,-87.24 32.85,-123.73 21.89,-36.49 52.3,-65.02 91.22,-85.59 38.92,-20.56 82.71,-30.85 131.36,-30.85 40.69,0 77.63,6.86 110.8,20.57 33.17,13.71 61.04,33.62 83.59,59.71l-69 63.69c-33.17,-34.94 -73.2,-52.41 -120.08,-52.41 -29.63,0 -55.95,6.19 -78.95,18.58 -23,12.38 -40.91,29.85 -53.74,52.41 -12.83,22.56 -19.24,48.43 -19.24,77.62 0,28.75 6.41,54.41 19.24,76.96 12.83,22.56 30.63,40.14 53.41,52.75 22.78,12.6 48.76,18.91 77.95,18.91 30.96,0 58.83,-6.64 83.6,-19.91l0 -136.01zm197.71 -224.91l107.48 0 0 464.42 -107.48 0 0 -464.42zm405.37 0l210.97 0c50.43,0 94.99,9.63 133.69,28.87 38.7,19.24 68.78,46.33 90.23,81.27 21.45,34.94 32.18,75.63 32.18,122.07 0,46.44 -10.73,87.14 -32.18,122.08 -21.45,34.94 -51.53,62.03 -90.23,81.27 -38.7,19.24 -83.26,28.86 -133.69,28.86l-210.97 0 0 -464.42zm205.67 376.18c46.44,0 83.48,-12.94 111.12,-38.81 27.65,-25.88 41.47,-60.93 41.47,-105.16 0,-44.23 -13.82,-79.28 -41.47,-105.15 -27.64,-25.88 -64.68,-38.82 -111.12,-38.82l-98.19 0 0 287.94 98.19 0zm641.56 -11.28l-215.62 0 -41.14 99.52 -110.13 0 207 -464.42 106.15 0 207.66 464.42 -112.79 0 -41.13 -99.52zm-33.84 -81.6l-73.64 -177.81 -73.65 177.81 147.29 0zm657.48 -283.3l-201.03 464.42 -106.15 0 -200.36 -464.42 116.1 0 141.32 331.73 143.3 -331.73 106.82 0zm334.38 464.42l-89.57 -129.37 -5.31 0 -93.54 0 0 129.37 -107.48 0 0 -464.42 201.02 0c41.14,0 76.85,6.86 107.15,20.57 30.3,13.71 53.63,33.17 69.99,58.39 16.37,25.21 24.55,55.06 24.55,89.56 0,34.5 -8.29,64.25 -24.88,89.24 -16.59,24.99 -40.14,44.11 -70.66,57.38l104.17 149.28 -115.44 0zm-2 -295.9c0,-26.09 -8.4,-46.11 -25.21,-60.04 -16.8,-13.93 -41.35,-20.9 -73.64,-20.9l-87.57 0 0 161.88 87.57 0c32.29,0 56.84,-7.07 73.64,-21.23 16.81,-14.15 25.21,-34.06 25.21,-59.71zm193.74 -168.52l107.48 0 0 464.42 -107.48 0 0 -464.42z"/>
  <g id="Бирмакон_x0020_лого_x0020_FINISH_x0020_27.05.2022.cdr">
   <path class="fil3" d="M134685.49 20257.34c-1945.63,0 -3202.01,-394.43 -4547.74,-1728.29 -2122.78,-2103.84 -2240.98,-6218.53 0.06,-8458 1258.75,-1257.76 2476.27,-1777.34 4400.59,-1777.34 1681.61,0 3014.72,640.15 4106.4,1728.35 1003.71,1000.53 1571.29,2272.42 1680.69,4156.32 17.02,293.32 -44.3,376.54 -50.91,636.04 -15.98,627.23 -150.22,1249.25 -377.05,1829.34 -234.83,600.54 -546.39,1121.56 -957.27,1592.38 -384.99,441.16 -425.41,512.8 -955.18,907.98 -290.37,216.59 -573.61,389.74 -912.74,558.21 -589.53,292.79 -1524.85,555.01 -2386.85,555.01zm-9806.28 -6226.98c0,3125.91 1002.61,5294.1 2709.01,6999.23 905.96,905.32 1537.02,1345.38 2684.23,1924.66 2848.17,1438.1 7097.9,1121.79 9673.66,-819.44 453.97,-342.08 851.47,-659.37 1248.27,-1056.23 387.89,-387.83 703.97,-781.91 1035.04,-1220.42 1003.19,-1328.76 1722.97,-3327.96 1722.97,-5190.37 0,-1836.99 -137.43,-3021.73 -915.23,-4576.29 -742.47,-1483.85 -1871.73,-2789.63 -3232.41,-3730.04 -480.72,-332.3 -954.72,-589.07 -1507.01,-846.49 -902.14,-420.49 -1761.07,-579.68 -2756.91,-724.35 -2795.64,-406.12 -5811.87,637.6 -7805.51,2632.75 -1744.45,1745.72 -2856.11,3953.52 -2856.11,6606.99z"/>
   <path class="fil3" d="M146452.98 23493.4l3677.34 0 0 -11130.12c114.31,83.74 167.71,205.12 254.46,333.97l1941.69 2765.25c92.08,138.17 154.68,207.03 246.24,342.19l4863.47 6953.07c101.87,143.5 454.37,601.64 490.16,735.64l2794.78 0 0 -18386.76 -3628.35 0 0 11130.13c-120.86,-88.55 -1072.63,-1499.9 -1225.92,-1715.9l-5402.5 -7688.89c-175.93,-259.79 -1159.78,-1725.34 -1314.64,-1725.34l-2696.73 0 0 18386.76z"/>
   <path class="fil3" d="M65845.57 13932.32l-3628.35 0 0 -5393.47 3628.35 0c1068.68,0 1954.78,671.47 2326.22,1596.31 78,194.35 106.67,251.16 147.67,489.7 152.88,889.51 -9.67,1830.79 -646.4,2487.27 -443.25,456.97 -947.02,820.19 -1827.49,820.19zm-7305.69 -8678.58l0 18239.66 3677.34 0 0 -6374.07 2598.69 0c178.89,0 333.57,412.9 511.01,714.79 165.45,281.51 320.59,529.65 469.59,805.19l2794.78 4854.09 3971.53 0 -1012.8 -1732.92c-328.36,-603.09 -685.96,-1128.39 -1014.31,-1731.48 -88.43,-162.55 -162.73,-270.04 -256.66,-429.76 -98.05,-166.78 -152.71,-272.87 -250.35,-436.12l-1017.49 -1728.18c-120.81,-199.44 -452.4,-705.24 -468.97,-903.99 758.87,-176.8 1866.7,-1264.54 2353.56,-1912.16 1303.4,-1733.67 1497.23,-4168.54 524.15,-6113.82 -376.19,-752.03 -753.54,-1149.76 -1320.95,-1719.03 -975.39,-978.57 -2410.77,-1679.3 -4351.54,-1679.3l-7060.49 0c-112.98,0 -147.09,34.17 -147.09,147.1z"/>
   <path class="fil3" d="M43683.42 20600.52l-5050.23 0 0 -5050.17 5001.18 0c1225.22,0 2304.45,1171.48 2304.45,2402.49l0 245.19c0,1223.78 -1045.35,2402.49 -2255.4,2402.49zm-637.42 -7844.95l-4412.81 0 0 -4756.05 4461.86 0c336.46,0 662.15,127.99 883.6,244.1 2190.31,1148.72 1303.98,4511.95 -932.65,4511.95zm-7452.78 10737.83l8090.2 0c750.88,0 1529.49,-197.82 2073.79,-426.8 482.17,-202.8 816.72,-398.48 1212.31,-699.97 1118.6,-852.45 2009.27,-2268.54 2009.27,-3727.32 0,-1630.24 -138.46,-2383.72 -1162.09,-3594 -370.4,-437.92 -820.08,-789.67 -1338.5,-1064l674.78 -649.01c1304.15,-1407.69 1469.95,-3634.13 616.58,-5349.34 -300.91,-604.94 -671.54,-1025.02 -1131,-1467.63 -979.97,-943.89 -2420.68,-1408.69 -3837.7,-1408.69l-7207.64 0 0 18386.76z"/>
   <path class="fil3" d="M100706.81 9421.41l98.04 0c18.76,225.62 216.65,723.83 287.93,937.87l2163.67 6416.81 -5001.24 0 2151.16 -6429.32c99.14,-297.55 231.12,-627.87 300.44,-925.36zm-8629.53 14071.99l3922.53 0 1099.79 -3327.09 7284.55 -7.07 1099.78 3327.1 3950.45 7.06c-138.75,-595.55 -1970.88,-5589.09 -2396.29,-6870.66l-405.55 -1163.43c-137.25,-366.11 -262.51,-765.46 -413.54,-1155.43l-2404.29 -6862.67c-133.77,-382.62 -267.78,-798.31 -411.17,-1157.82l-392.28 -1176.75 -4559.91 0c-20.9,251.63 -653.17,1934 -778.26,2310.76l-1197.37 3411.53c-432.42,1092.49 -1223.19,3451.43 -1597.06,4580.87 -71.75,216.76 -137.54,358.53 -209.29,575.23 -61.27,185.14 -122.71,390.72 -196.61,587.85l-599.72 1704.78c-199.91,604.76 -1770.28,4909.8 -1795.76,5215.74z"/>
   <path class="fil3 str1" d="M75112.46 7852.43l0 15395.78 3285.11 0 0 -8041.1 772.24 845.79c4108.95,4108.83 7138.04,-629.03 7366.96,-796.74l0 7992.05 3285.05 0 0 -15199.69c0,-1651.33 -1896,-2211.97 -2833.34,-1215.32 -329.28,350.01 -382.97,695.1 -543.21,1172.87 -460.22,1372.25 -2161.87,6471.77 -3924.21,6399.96 -1470.82,-60 -3463.65,-4665.07 -4019.88,-6313.96 -181.9,-539.1 -170.55,-777.86 -522.77,-1193.37 -1039.21,-1226.15 -2865.95,-261.99 -2865.95,953.73z"/>
   <path class="fil3" d="M111199.51 23493.4l3628.28 0 0 -8531.43c176.86,118.37 4633.45,6029.57 4896.02,6381.14 442.09,591.85 1258.64,1602.98 1625.15,2150.29l4167.68 0c-46.45,-199.38 -278.21,-452.92 -406.25,-623.46l-6605.25 -8839.58c406.93,-607.66 2009.79,-2627.99 2542.51,-3341.22l1694.88 -2227.66c319.96,-409.55 2479.4,-3169.29 2528.97,-3354.84l-4216.72 0c-44.77,167.66 -63.36,127 -174.78,266.51 -77.19,96.65 -113.04,154.74 -189.13,252.14l-5638.44 7256.82c-82.64,106.61 -146.98,176.33 -224.64,265.69l0 -8041.16 -3628.28 0 0 18386.76z"/>
   <path class="fil3" d="M1369.4 6773.72c0,752.9 35.27,1058.44 623.7,1631.76 644.66,627.98 1918.01,476.61 2906.54,476.61l1223.89 -51.08c1264.89,-18.59 1007.42,429.93 1783.43,2044.95 283.41,589.82 489.57,1207.5 768.13,1781.51l2690.19 6233.47c152.94,374.1 191.22,533.99 483.44,791.41 482.92,425.47 1413.14,231.76 2219.78,231.76l13287.47 0c980.61,0 1407.41,164 2174.91,-227.65 536.19,-273.63 968.26,-768.3 1051.6,-1452.93 34.05,-280.29 -109.51,-829.69 -179.35,-1023.34 -127.64,-354.01 -274.38,-511.93 -533.48,-741.38 -419.85,-371.9 -1334.09,-428.19 -2121.39,-428.19l-8580.48 0c-361.88,-0.23 -595.2,33.76 -882.33,49.28 -583.74,31.51 -1268.42,-0.23 -1863.45,-0.23 -2201.48,0 -1665.98,164.93 -2909.56,-2630.95 -392.46,-882.33 -735.7,-1716.59 -1127.76,-2598.63 -563.12,-1267.03 -1688.21,-4054.51 -2238.02,-5165.71 -469.6,-949.22 -1203.62,-645.36 -2058.04,-634.82 -1536.89,19 -3037.65,-50.96 -4610.86,-50.96 -1157.52,0 -2108.36,730.32 -2108.36,1765.12z"/>
   <path class="fil3" d="M51528.43 5891.16l0 17602.24 3677.34 0 0 -18386.76 -2647.68 0c-301.14,0 -491.72,80.79 -679.53,203.1 -160.24,104.24 -350.13,341.21 -350.13,581.42z"/>
   <path class="fil1" d="M18824.55 7754.33l0 588.37c0,1348.98 1042.22,2644.33 2255.45,3187.07 2553.46,1142.18 5393.41,-812.14 5393.41,-3481.25 0,-1932.49 -1646.29,-3922.48 -3726.39,-3922.48 -2068.81,0 -3922.47,1734.55 -3922.47,3628.29z"/>
   <path class="fil3" d="M13382.08 22365.65c0,930.97 853.9,2010.32 1765.12,2010.32 756.55,0 1020.74,-116.23 1533.08,-624.28 193.19,-191.57 259.79,-336.76 394.02,-586.64 114.21,-212.53 315.91,-358.12 622.55,-358.12l4167.61 0c327.25,0 502.49,135.86 628.28,352.39 157.92,271.83 137.71,313.99 371.26,609.33 576.04,728.52 1881.18,861.37 2716.02,8.05 590.35,-603.43 761.12,-1366 418.87,-2162.27 -169.16,-393.74 -613.22,-794.71 -996.01,-965.26 -839.53,-373.93 -1806.99,-135.63 -2247.46,548.13 -190.53,295.8 -284.86,644.02 -705.41,765.52 -369.94,106.84 -1521.9,10.6 -2097.77,10.6l-1129.66 -1.97c-628.39,7.76 -1393.05,262.16 -1762.12,-342.31 -235.11,-385.11 -194.29,-415.11 -625.38,-796.51 -596.3,-527.63 -1703.33,-532.37 -2428.14,196.67 -346.77,348.79 -624.86,790.31 -624.86,1336.35z"/>
   <path class="fil1" d="M12989.79 6528.59c0,1290.77 1070.49,2353.5 2157.41,2353.5 714.86,0 1339.54,-151.04 1852.57,-697.08 894.73,-952.4 816.78,-2416.33 -25.01,-3287.89 -374.34,-387.54 -870.64,-759.61 -1602.51,-785.96 -1198.53,-43.15 -2382.46,1179.35 -2382.46,2417.43z"/>
   <path class="fil1" d="M86046.44 2851.25l0 392.23c0,955.93 1005.33,1961.27 1961.27,1961.27l392.23 0c953.62,0 1961.27,-1009.68 1961.27,-1961.27 0,-714.91 -70.48,-1176.52 -623.7,-1729.8 -394.49,-394.49 -868.78,-587.79 -1343.83,-623.7l-332.64 0c-1051.14,79.22 -2014.6,892.81 -2014.6,1961.27z"/>
   <path class="fil1" d="M74524.09 3047.33c0,1095.91 999.83,2157.42 2010.26,2157.42 706.8,0 1183.41,-77.32 1729.85,-623.7 1005.05,-1005.11 793.85,-2746.2 -536.19,-3462.84 -398.02,-214.45 -675.36,-227.65 -1067.88,-228.23l-82.93 0 -42.85 0c-786.78,0 -1588.27,718.5 -1808.62,1280.35 -80.38,204.83 -201.64,611.95 -201.64,877z"/>
   <path class="fil1" d="M14264.64 12461.38c0,1026.88 884.19,1912.22 1716.08,1912.22 661.05,0 1016.62,-7.47 1582.24,-575.17 1403,-1408.39 -122.6,-3955.95 -2186.43,-3068.99 -620.51,266.74 -1111.89,1036.2 -1111.89,1731.94z"/>
   <path class="fil1" d="M26130.23 15844.54c1027.57,0 1912.22,-757.48 1912.22,-1716.13l0 -294.19c0,-966.94 -932.48,-1814.12 -1912.22,-1814.12 -1080.32,0 -1869.13,888.7 -1892.18,1918.24 -24.2,1081.37 789.27,1906.2 1892.18,1906.2z"/>
   <path class="fil4" d="M60395.43 31785.79c-360.28,0 -708.68,-48.78 -1045.01,-146.53 -336.42,-97.64 -606.7,-224.64 -810.64,-380.88l358.12 -794.35c195.3,143.29 427.5,258.31 696.7,345.06 269.1,86.86 538.2,130.24 807.3,130.24 299.53,0 520.93,-44.46 664.22,-133.48 143.19,-88.91 214.83,-207.27 214.83,-354.87 0,-108.45 -42.3,-198.54 -127,-270.18 -84.59,-71.65 -193.14,-129.16 -325.53,-172.53 -132.39,-43.38 -311.5,-91.18 -537.22,-143.29 -347.22,-82.44 -631.53,-164.88 -852.94,-247.41 -221.31,-82.44 -411.31,-214.83 -569.71,-397.18 -158.39,-182.24 -237.69,-425.34 -237.69,-729.18 0,-264.78 71.64,-504.64 214.93,-719.57 143.18,-214.83 359.19,-385.2 647.82,-511.11 288.63,-125.82 641.35,-188.83 1058.06,-188.83 290.88,0 575.2,34.74 852.94,104.23 277.83,69.48 520.93,169.29 729.28,299.52l-325.53 800.83c-421.03,-238.68 -842.15,-358.11 -1263.17,-358.11 -295.21,0 -513.28,47.79 -654.4,143.28 -141.03,95.49 -211.59,221.41 -211.59,377.65 0,156.24 81.35,272.34 244.17,348.3 162.81,75.96 411.31,150.84 745.48,224.64 347.31,82.54 631.63,164.98 853.03,247.41 221.31,82.54 411.21,212.77 569.71,390.7 158.4,177.93 237.6,418.87 237.6,722.71 0,260.46 -72.63,498.16 -218.07,712.99 -145.44,214.83 -363.51,385.2 -654.4,511.12 -290.79,125.91 -644.59,188.82 -1061.29,188.82zm5658.19 -1054.82l-2116.1 0 -403.75 976.7 -1080.83 0 2031.51 -4557.85 1041.77 0 2037.98 4557.85 -1106.92 0 -403.66 -976.7zm-332.1 -800.82l-722.71 -1745.04 -722.81 1745.04 1445.52 0zm6452.54 -2780.33l-1972.92 4557.85 -1041.76 0 -1966.34 -4557.85 1139.41 0 1386.92 3255.62 1406.36 -3255.62 1048.33 0zm377.65 0l2070.47 0c494.92,0 932.24,94.51 1312.04,283.34 379.81,188.82 675.01,454.68 885.53,797.58 210.51,342.91 315.81,742.24 315.81,1198.01 0,455.76 -105.3,855.19 -315.81,1198.1 -210.52,342.9 -505.72,608.76 -885.53,797.59 -379.8,188.82 -817.12,283.23 -1312.04,283.23l-2070.47 0 0 -4557.85zm2018.46 3691.86c455.76,0 819.27,-127 1090.54,-380.89 271.35,-253.99 406.98,-597.97 406.98,-1032.04 0,-434.08 -135.63,-778.06 -406.98,-1031.95 -271.27,-253.99 -634.78,-380.98 -1090.54,-380.98l-963.65 0 0 2825.86 963.65 0zm5567.02 944.11c-473.13,0 -899.65,-101.97 -1279.46,-306 -379.8,-204.04 -677.17,-485.11 -892,-843.23 -214.92,-358.11 -322.39,-760.69 -322.39,-1207.81 0,-447.03 107.47,-849.71 322.39,-1207.82 214.83,-358.12 512.2,-639.19 892,-843.13 379.81,-204.03 806.33,-306.1 1279.46,-306.1 473.14,0 898.48,102.07 1276.12,306.1 377.65,203.94 675.02,485.01 892,843.13 217.09,358.11 325.64,760.79 325.64,1207.82 0,447.12 -108.55,849.7 -325.64,1207.81 -216.98,358.12 -514.35,639.19 -892,843.23 -377.64,204.03 -802.98,306 -1276.12,306zm0 -898.48c269.1,0 512.2,-61.93 729.19,-185.58 217.08,-123.76 387.46,-296.29 511.11,-517.69 123.76,-221.31 185.59,-473.14 185.59,-755.29 0,-282.16 -61.83,-533.89 -185.59,-755.29 -123.65,-221.41 -294.03,-393.94 -511.11,-517.6 -216.99,-123.75 -460.09,-185.58 -729.19,-185.58 -269.2,0 -512.29,61.83 -729.28,185.58 -217.09,123.66 -387.46,296.19 -511.12,517.6 -123.75,221.4 -185.58,473.13 -185.58,755.29 0,282.15 61.83,533.98 185.58,755.29 123.66,221.4 294.03,393.93 511.12,517.69 216.99,123.65 460.08,185.58 729.28,185.58zm3288.11 -3737.49l1054.81 0 0 3698.33 2285.4 0 0 859.52 -3340.21 0 0 -4557.85zm6973.38 3581.15l-2116.11 0 -403.75 976.7 -1080.82 0 2031.51 -4557.85 1041.76 0 2037.99 4557.85 -1106.93 0 -403.65 -976.7zm-332.11 -800.82l-722.71 -1745.04 -722.81 1745.04 1445.52 0zm5221.96 1777.52l-879.04 -1269.65 -52.12 0 -918 0 0 1269.65 -1054.82 0 0 -4557.85 1972.82 0c403.75,0 754.21,67.33 1051.58,201.88 297.37,134.55 526.33,325.53 686.89,573.04 160.65,247.41 240.93,540.36 240.93,878.95 0,338.58 -81.36,630.55 -244.17,875.81 -162.82,245.25 -393.94,432.89 -693.46,563.13l1022.33 1465.04 -1132.94 0zm-19.63 -2903.98c0,-256.05 -82.44,-452.53 -247.41,-589.24 -164.88,-136.71 -405.81,-205.11 -722.71,-205.11l-859.41 0 0 1588.7 859.41 0c316.9,0 557.83,-69.39 722.71,-208.35 164.97,-138.87 247.41,-334.27 247.41,-586zm6081.48 -1653.87l0 4557.85 -865.99 0 -2272.35 -2767.27 0 2767.27 -1041.76 0 0 -4557.85 872.47 0 2265.87 2767.27 0 -2767.27 1041.76 0zm1080.92 0l1054.82 0 0 4557.85 -1054.82 0 0 -4557.85zm6315.74 0l0 4557.85 -865.99 0 -2272.35 -2767.27 0 2767.27 -1041.76 0 0 -4557.85 872.47 0 2265.87 2767.27 0 -2767.27 1041.76 0zm4160.67 2207.28l963.65 0 0 1849.17c-247.42,186.66 -533.89,329.95 -859.52,429.76 -325.53,99.81 -653.22,149.76 -983.17,149.76 -473.14,0 -898.48,-100.89 -1276.12,-302.76 -377.65,-201.88 -673.94,-481.78 -888.77,-839.89 -214.92,-358.12 -322.39,-762.95 -322.39,-1214.39 0,-451.45 107.47,-856.18 322.39,-1214.3 214.83,-358.11 513.28,-638.11 895.24,-839.98 381.97,-201.78 811.72,-302.77 1289.18,-302.77 399.33,0 761.86,67.33 1087.4,201.88 325.53,134.55 599.05,329.95 820.35,586l-677.17 625.05c-325.53,-342.9 -718.39,-514.35 -1178.47,-514.35 -290.79,0 -549.1,60.75 -774.82,182.34 -225.72,121.5 -401.49,292.95 -527.41,514.36 -125.91,221.4 -188.82,475.29 -188.82,761.77 0,282.15 62.91,533.98 188.82,755.29 125.92,221.4 300.61,393.93 524.17,517.69 223.57,123.65 478.54,185.58 765.01,185.58 303.84,0 577.36,-65.16 820.45,-195.4l0 -1334.81zm5970.78 735.76l0 1614.81 -1054.82 0 0 -1627.76 -1764.56 -2930.09 1119.98 0 1217.53 2025.04 1217.63 -2025.04 1035.19 0 -1770.95 2943.04zm4935.39 638.11l-2116.11 0 -403.75 976.7 -1080.82 0 2031.51 -4557.85 1041.76 0 2037.99 4557.85 -1106.93 0 -403.65 -976.7zm-332.11 -800.82l-722.7 -1745.04 -722.81 1745.04 1445.51 0zm6498.09 -2780.33l0 4557.85 -865.99 0 -2272.35 -2767.27 0 2767.27 -1041.76 0 0 -4557.85 872.47 0 2265.87 2767.27 0 -2767.27 1041.76 0zm4160.67 2207.28l963.64 0 0 1849.17c-247.41,186.66 -533.88,329.95 -859.51,429.76 -325.53,99.81 -653.23,149.76 -983.18,149.76 -473.13,0 -898.47,-100.89 -1276.12,-302.76 -377.64,-201.88 -673.93,-481.78 -888.76,-839.89 -214.93,-358.12 -322.39,-762.95 -322.39,-1214.39 0,-451.45 107.46,-856.18 322.39,-1214.3 214.83,-358.11 513.28,-638.11 895.24,-839.98 381.96,-201.78 811.72,-302.77 1289.17,-302.77 399.34,0 761.87,67.33 1087.4,201.88 325.54,134.55 599.05,329.95 820.36,586l-677.17 625.05c-325.53,-342.9 -718.39,-514.35 -1178.47,-514.35 -290.79,0 -549.1,60.75 -774.82,182.34 -225.73,121.5 -401.5,292.95 -527.41,514.36 -125.91,221.4 -188.82,475.29 -188.82,761.77 0,282.15 62.91,533.98 188.82,755.29 125.91,221.4 300.6,393.93 524.17,517.69 223.56,123.65 478.53,185.58 765,185.58 303.85,0 577.37,-65.16 820.46,-195.4l0 -1334.81zm1940.34 -2207.28l1054.81 0 0 4557.85 -1054.81 0 0 -4557.85zm3978.32 0l2070.48 0c494.92,0 932.23,94.51 1312.04,283.34 379.8,188.82 675.01,454.68 885.52,797.58 210.51,342.91 315.82,742.24 315.82,1198.01 0,455.76 -105.31,855.19 -315.82,1198.1 -210.51,342.9 -505.72,608.76 -885.52,797.59 -379.81,188.82 -817.12,283.23 -1312.04,283.23l-2070.48 0 0 -4557.85zm2018.46 3691.86c455.77,0 819.28,-127 1090.54,-380.89 271.36,-253.99 406.99,-597.97 406.99,-1032.04 0,-434.08 -135.63,-778.06 -406.99,-1031.95 -271.26,-253.99 -634.77,-380.98 -1090.54,-380.98l-963.64 0 0 2825.86 963.64 0zm6296.31 -110.71l-2116.11 0 -403.75 976.7 -1080.82 0 2031.51 -4557.85 1041.76 0 2037.99 4557.85 -1106.93 0 -403.65 -976.7zm-332.11 -800.82l-722.71 -1745.04 -722.8 1745.04 1445.51 0zm6452.55 -2780.33l-1972.92 4557.85 -1041.76 0 -1966.35 -4557.85 1139.41 0 1386.93 3255.62 1406.35 -3255.62 1048.34 0zm3281.63 4557.85l-879.05 -1269.65 -52.11 0 -918.01 0 0 1269.65 -1054.81 0 0 -4557.85 1972.82 0c403.75,0 754.21,67.33 1051.57,201.88 297.37,134.55 526.33,325.53 686.89,573.04 160.66,247.41 240.94,540.36 240.94,878.95 0,338.58 -81.36,630.55 -244.18,875.81 -162.81,245.25 -393.93,432.89 -693.46,563.13l1022.33 1465.04 -1132.93 0zm-19.63 -2903.98c0,-256.05 -82.44,-452.53 -247.42,-589.24 -164.87,-136.71 -405.81,-205.11 -722.7,-205.11l-859.42 0 0 1588.7 859.42 0c316.89,0 557.83,-69.39 722.7,-208.35 164.98,-138.87 247.42,-334.27 247.42,-586zm1901.37 -1653.87l1054.82 0 0 4557.85 -1054.82 0 0 -4557.85z"/>
  </g>
 </g>
</svg>
